<svg xmlns="http://www.w3.org/2000/svg" viewBox="0 0 234 33"><defs><style>.a{fill:#088eb8;}</style></defs><title>logo</title><path class="a" d="M16,32.65l5.94-8.17H32.87q1.54,0,2.68.09-.67-.85-1.54-2.16T32.32,20l-5.7-8.41L11.71,32.65H.07L20.45,3.91A11,11,0,0,1,23,1.44,6.43,6.43,0,0,1,26.81.35a6.47,6.47,0,0,1,3.73,1,9.71,9.71,0,0,1,2.54,2.54L52.94,32.65Z"/><path class="a" d="M92.5,24.52l-6.32,8.17h-16a22.92,22.92,0,0,1-7.65-1.23,18.91,18.91,0,0,1-6.06-3.4,15.71,15.71,0,0,1-4-5.13,14.47,14.47,0,0,1-1.45-6.44,13.88,13.88,0,0,1,1.45-6.34,15,15,0,0,1,4-4.94A18.21,18.21,0,0,1,62.58,2,25.16,25.16,0,0,1,70.23.91H92.5L86.19,9.18h-16a11.65,11.65,0,0,0-3.71.57,9.07,9.07,0,0,0-2.95,1.59,7.48,7.48,0,0,0-1.95,2.45,6.91,6.91,0,0,0-.71,3.14,6.82,6.82,0,0,0,2.64,5.51,9.26,9.26,0,0,0,3,1.54,12.08,12.08,0,0,0,3.71.55Z"/><path class="a" d="M135,32.69h-9.79V20.43H106.33V32.69H96.45V.91h9.88V12.17h18.91V.91H135Z"/><path class="a" d="M155,32.75,161,24.58H171.9q1.54,0,2.68.09-.67-.85-1.54-2.16t-1.69-2.45l-5.7-8.41L150.74,32.75H139.1L159.48,4A11,11,0,0,1,162,1.54a7.32,7.32,0,0,1,7.58-.07A9.72,9.72,0,0,1,172.11,4L192,32.75Z"/><path class="a" d="M233.53,18.42q0,14.39-19.81,14.39a47,47,0,0,1-9.88-.9A19.61,19.61,0,0,1,197,29.2a11,11,0,0,1-3.94-4.49,14.68,14.68,0,0,1-1.26-6.29V.51h9.78V18.42a8,8,0,0,0,.48,2.95,3.85,3.85,0,0,0,1.78,1.92,10.33,10.33,0,0,0,3.68,1,49.72,49.72,0,0,0,6.18.31,28.17,28.17,0,0,0,4.75-.33,7.93,7.93,0,0,0,3-1.09,4.33,4.33,0,0,0,1.64-1.95,7.35,7.35,0,0,0,.5-2.85V.51h9.88Z"/></svg>